<?xml version="1.0" encoding="UTF-8"?>
<svg width="700pt" fill="white" height="700pt" version="1.1" viewBox="0 0 700 700" xmlns="http://www.w3.org/2000/svg">
 <path d="m577.5 247.5h-195v-195c0-8.6211-3.4258-16.887-9.5195-22.98s-14.359-9.5195-22.98-9.5195-16.887 3.4258-22.98 9.5195-9.5195 14.359-9.5195 22.98v195h-195c-8.6211 0-16.887 3.4258-22.98 9.5195s-9.5195 14.359-9.5195 22.98 3.4258 16.887 9.5195 22.98 14.359 9.5195 22.98 9.5195h195v195c0 8.6211 3.4258 16.887 9.5195 22.98s14.359 9.5195 22.98 9.5195 16.887-3.4258 22.98-9.5195 9.5195-14.359 9.5195-22.98v-195h195c8.6211 0 16.887-3.4258 22.98-9.5195s9.5195-14.359 9.5195-22.98-3.4258-16.887-9.5195-22.98-14.359-9.5195-22.98-9.5195z"/>
</svg>
