<?xml version="1.0" encoding="UTF-8"?>
<svg width="700pt" fill="white" height="700pt" version="1.1" viewBox="0 0 700 700" xmlns="http://www.w3.org/2000/svg">
 <path d="m602 252c-16.801 0-28 11.199-28 28 0 81.199-42 154-112 193.2-106.4 61.602-243.6 25.199-305.2-81.199-61.602-106.4-25.199-243.6 81.199-305.2 92.398-53.199 204.4-33.602 274.4 39.199h-67.199c-16.801 0-28 11.199-28 28s11.199 28 28 28h126c16.801 0 28-11.199 28-28v-126c0-16.801-11.199-28-28-28s-28 11.199-28 28v50.398c-53.199-50.398-120.4-78.398-193.2-78.398-154 0-280 126-280 280s126 280 280 280 280-126 280-280c0-16.801-11.199-28-28-28z"/>
</svg>
